# xmcd CD database file
#
# Track frame offsets:
#	150
#	11622
#	23140
#	37352
#	48193
#	60961
#	73594
#	83894
#	96485
#	108526
#	122058
#	135077
#	147045
#	159022
#	171655
#	182046
#	191764
#	203698
#
# Disc length: 2872 seconds
#
# Revision: 0
# Processed by: cddbd v1.5.2PL0 Copyright (c) Steve Scherf et al.
# Submitted via: CDex 1.51
#
DISCID=f40b3612
DTITLE=Lightnin' Hopkins - Lightnin' Hopkins
DYEAR=2004
DGENRE=Blues
TTITLE0=Can't do like you used to
TTITLE1=My California
TTITLE2=Blues (that mean old twister)
TTITLE3=Short haired woman
TTITLE4=You're not goin' to worry my life anymore
TTITLE5=Fast mail rambler
TTITLE6=You're gonna miss me
TTITLE7=I can't stay here in your town
TTITLE8=Come back baby
TTITLE9=Katie May
TTITLE10=Thinkin' and worryin'
TTITLE11=Somebody baby
TTITLE12=Have to left you go
TTITLE13=Picture on the wall
TTITLE14=Lightnin's boogie
TTITLE15=Feel so bad
TTITLE16=Can't get that woman out of my mind
TTITLE17=West coast blues
EXTD=YEAR: 2004
EXTT0=
EXTT1=
EXTT2=
EXTT3=
EXTT4=
EXTT5=
EXTT6=
EXTT7=
EXTT8=
EXTT9=
EXTT10=
EXTT11=
EXTT12=
EXTT13=
EXTT14=
EXTT15=
EXTT16=
EXTT17=
PLAYORDER=
